# xmcd CD database file
#
# Track frame offsets:
#	150
#	17060
#	34142
#	50235
#	65352
#	82380
#	99932
#	117860
#	139040
#	155652
#	176392
#	195172
#	211007
#	233635
#	256197
#	278785
#
# Disc length: 4013 seconds
#
# Revision: 0
# Processed by: cddbd v1.5.2PL0 Copyright (c) Steve Scherf et al.
# Submitted via: CDex 1.70beta3
#
DISCID=d40fab10
DTITLE=MAX - MAXIMUM PERFECT BEST DISC 2 ENERGY
DYEAR=2015
DGENRE=VISION FACTORY
TTITLE0=TORA TORA TORA
TTITLE1=Seventies
TTITLE2=CAT'S EYE
TTITLE3=Kiss me Kiss me, Baby
TTITLE4=MAGIC
TTITLE5=バラ色の日々
TTITLE6=Feel so right
TTITLE7=Never gonna stop it
TTITLE8=moonlight
TTITLE9=あの夏へと
TTITLE10=SPLASH GOLD -夏の奇蹟-
TTITLE11=Festa
TTITLE12=銀河の誓い
TTITLE13=閃光-ひかり-のVEIL
TTITLE14=ラフカット ダイアモンド
TTITLE15=恋するベルファーレダンス ～Saturday Night～
EXTD=YEAR: 2015
EXTT0=
EXTT1=
EXTT2=
EXTT3=
EXTT4=
EXTT5=
EXTT6=
EXTT7=
EXTT8=
EXTT9=
EXTT10=
EXTT11=
EXTT12=
EXTT13=
EXTT14=
EXTT15=
PLAYORDER=
